<?xml version="1.0" encoding="UTF-8" standalone="no"?>
<!-- Created with Inkscape (http://www.inkscape.org/) -->

<svg
   width="793.70081"
   height="1122.5197"
   viewBox="0 0 210 296.99999"
   version="1.1"
   id="svg1"
   xml:space="preserve"
   inkscape:version="1.4.2 (f4327f4, 2025-05-13)"
   sodipodi:docname="Logo_Freeland_1.svg"
   xmlns:inkscape="http://www.inkscape.org/namespaces/inkscape"
   xmlns:sodipodi="http://sodipodi.sourceforge.net/DTD/sodipodi-0.dtd"
   xmlns="http://www.w3.org/2000/svg"
   xmlns:svg="http://www.w3.org/2000/svg"><sodipodi:namedview
     id="namedview1"
     pagecolor="#ffffff"
     bordercolor="#000000"
     borderopacity="0.25"
     inkscape:showpageshadow="2"
     inkscape:pageopacity="0.0"
     inkscape:pagecheckerboard="0"
     inkscape:deskcolor="#d1d1d1"
     inkscape:document-units="px"
     inkscape:zoom="0.5"
     inkscape:cx="211"
     inkscape:cy="679"
     inkscape:window-width="1366"
     inkscape:window-height="697"
     inkscape:window-x="-8"
     inkscape:window-y="-8"
     inkscape:window-maximized="1"
     inkscape:current-layer="layer1" /><defs
     id="defs1" /><g
     inkscape:label="Capa 1"
     inkscape:groupmode="layer"
     id="layer1"><g
       id="g1"
       transform="translate(7.4083332,58.208332)"><path
         style="fill:#f75ba6"
         d="M 96.148911,234.25633 C 85.216138,233.13526 75.241951,228.88481 66.072713,221.43951 64.464684,220.13381 27.569224,182.72074 23.936748,178.71241 16.626649,170.64594 14.858869,168.32412 12.023163,163.06498 3.6858186,147.60243 3.2327372,128.74243 10.704337,108.16743 13.933239,99.27581 18.259815,90.899004 27.959417,74.759392 35.233733,62.655325 40.518169,52.61734 44.525949,43.290644 c 2.023172,-4.708219 2.977979,-6.371099 4.414259,-7.687821 1.695898,-1.554729 2.721544,-1.962752 4.933767,-1.962752 1.793819,0 1.97231,0.04326 3.409728,0.826481 1.072267,0.584253 1.996896,1.338496 3.154846,2.573486 2.435624,2.597669 4.367678,5.444351 17.377218,25.603531 3.161666,4.899219 3.867268,6.765354 3.652561,9.660073 -0.293241,3.953543 -3.291186,7.013085 -8.560115,8.735995 -1.786272,0.584101 -3.687321,1.554656 -4.785764,2.44331 -1.198047,0.969234 -2.763112,3.763881 -7.036215,12.564165 -5.986202,12.328338 -10.633093,23.781358 -13.300004,32.779998 -3.163751,10.67508 -2.847792,20.18379 0.941758,28.34199 0.957002,2.06025 2.945788,5.19333 4.695445,7.39708 3.965068,4.99413 18.795025,18.98102 26.645774,25.131 7.114922,5.57356 13.648819,8.37101 20.286163,8.68543 6.50605,0.30819 11.83942,-1.94934 19.71031,-8.34308 7.47441,-6.07165 23.76839,-21.56502 27.03896,-25.71037 3.92752,-4.97802 6.39215,-10.07881 7.55355,-15.63281 0.54088,-2.58662 0.53692,-9.66234 -0.007,-12.96483 -0.96906,-5.8809 -2.78985,-11.99085 -5.92386,-19.87848 -3.31436,-8.34152 -12.30501,-27.675028 -14.34638,-30.850473 -1.69063,-2.629864 -3.67715,-4.154186 -6.79669,-5.215337 -0.52507,-0.178608 -2.60727,-0.720876 -4.62711,-1.205042 -4.0443,-0.969437 -5.53074,-1.587483 -6.48594,-2.696786 -0.80206,-0.931442 -1.0749,-1.936752 -1.07603,-3.964723 -10e-4,-1.954265 0.54661,-4.341748 2.38611,-10.401174 3.61398,-11.9047 9.42478,-26.408641 12.31938,-30.749587 1.11053,-1.665438 2.75369,-3.172358 4.14163,-3.798236 3.1956,-1.441021 6.97594,-0.847993 8.62199,1.352544 0.36204,0.483996 1.20457,2.312335 1.87227,4.062976 2.58843,6.786503 5.88506,13.088303 11.14497,21.304616 1.01939,1.592344 2.65574,4.149746 3.63634,5.683115 0.98059,1.533369 4.21632,6.455161 7.19049,10.937317 10.23177,15.419522 12.77504,19.851942 17.121,29.83845 5.56503,12.78779 8.15139,22.60688 8.98267,34.10254 0.67456,9.32839 -0.66688,18.39907 -3.91831,26.4951 -2.35514,5.86429 -5.83841,11.42388 -10.52107,16.7925 -2.33373,2.6756 -42.70066,43.83513 -44.61515,45.49117 -5.20639,4.50353 -13.82817,8.65447 -21.3499,10.27888 -4.4321,0.95717 -11.9058,1.39177 -16.258429,0.94544 z"
         id="path3" /><path
         style="fill:#168adb"
         d="M 96.148911,234.25633 C 84.654764,233.0777 73.970959,228.33549 64.93858,220.40304 62.520085,218.27906 24.226027,179.21387 21.976464,176.57578 c -2.78376,-3.26453 -4.84947,-7.10618 -6.363547,-11.83444 -1.375499,-4.29549 -1.672946,-6.23078 -1.67499,-10.89802 -0.0014,-3.30927 0.07678,-4.34102 0.471591,-6.21926 1.618727,-7.70088 4.944767,-13.7086 12.763421,-23.05414 3.795911,-4.53721 37.763413,-38.909046 39.199825,-39.666444 l 0.639864,-0.33739 -0.647856,1.120363 c -3.663302,6.335098 -10.872981,21.877801 -14.556073,31.380141 -5.836308,15.05762 -7.300561,23.82327 -5.491185,32.87263 1.058319,5.29305 3.429055,10.07409 7.486088,15.09713 5.089796,6.30171 22.841771,22.54961 29.778802,27.25572 6.936954,4.70606 14.9047,6.94703 21.084596,5.93016 3.47485,-0.57178 8.08689,-2.68466 11.87236,-5.43902 6.91386,-5.0306 26.38842,-23.16 30.56528,-28.45405 3.92752,-4.97802 6.39215,-10.07881 7.55355,-15.63281 0.54088,-2.58662 0.53692,-9.66234 -0.007,-12.96483 -0.96906,-5.8809 -2.78985,-11.99085 -5.92386,-19.87848 -3.31436,-8.34152 -12.30501,-27.675028 -14.34638,-30.850473 -1.69063,-2.629864 -3.67715,-4.154186 -6.79669,-5.215337 -0.52507,-0.178608 -2.60727,-0.720876 -4.62711,-1.205042 -4.0443,-0.969437 -5.53074,-1.587483 -6.48594,-2.696786 -0.80206,-0.931442 -1.0749,-1.936752 -1.07603,-3.964723 -10e-4,-1.954265 0.54661,-4.341748 2.38611,-10.401174 3.61398,-11.9047 9.42478,-26.408641 12.31938,-30.749587 1.11053,-1.665438 2.75369,-3.172358 4.14163,-3.798236 3.1956,-1.441021 6.97594,-0.847993 8.62199,1.352544 0.36204,0.483996 1.20457,2.312335 1.87227,4.062976 2.58843,6.786503 5.88506,13.088303 11.14497,21.304616 1.01939,1.592344 2.65574,4.149746 3.63634,5.683115 0.98059,1.533369 4.21632,6.455161 7.19049,10.937317 10.4502,15.7487 12.66605,19.632537 17.31322,30.34569 4.75043,10.95121 7.28891,19.937 8.48175,30.02401 0.56158,4.74891 0.51309,12.86185 -0.10107,16.91114 -1.70771,11.25916 -5.85989,20.26229 -13.52239,29.32044 -2.16565,2.56011 -42.936,44.22726 -45.1451,46.13814 -5.18294,4.48324 -13.81978,8.63791 -21.32717,10.25922 -4.4321,0.95717 -11.9058,1.39177 -16.258429,0.94544 z"
         id="path2" /><path
         style="fill:#493aa9"
         d="M 115.94762,224.58532 C 109.30747,223.71583 102.11999,220.11919 94.466327,213.836 90.054938,210.21451 86.810579,207.07397 72.69789,192.76414 60.376482,180.2706 58.617686,178.57638 49.982998,170.88317 31.069185,154.03161 29.213784,152.14048 25.585863,146.01621 23.477205,142.4566 21.32426,137.13541 20.798853,134.1847 l -0.197305,-1.10808 1.938023,-2.64492 c 3.64415,-4.97337 7.316963,-9.07084 16.279843,-18.16218 14.917099,-15.130899 26.876825,-27.009323 27.55335,-27.366044 l 0.639864,-0.33739 -0.647856,1.120363 c -3.663302,6.335098 -10.872981,21.877801 -14.556073,31.380141 -5.836308,15.05762 -7.300561,23.82327 -5.491185,32.87263 1.058319,5.29305 3.429055,10.07409 7.486088,15.09713 3.803255,4.70884 18.06914,18.18414 25.41101,24.00279 6.558514,5.19782 11.747,7.81767 17.775592,8.97555 1.272454,0.24439 3.307326,0.65955 4.521946,0.92257 3.13223,0.67827 8.7844,0.67071 11.21941,-0.015 2.39057,-0.67319 4.83205,-1.72305 6.8228,-2.93384 6.80135,-4.13665 32.741,-28.34105 43.90246,-40.96557 10.60633,-11.99663 15.3984,-19.4613 18.18225,-28.32271 2.40497,-7.65542 2.75098,-15.52813 1.14838,-26.12929 -0.28362,-1.876149 -0.47899,-3.448586 -0.43416,-3.494302 0.16508,-0.168325 3.70811,8.311312 5.03586,12.052462 2.71182,7.64098 4.22086,14.00094 5.11392,21.55295 0.56158,4.74891 0.51309,12.86185 -0.10107,16.91114 -1.70751,11.25784 -5.84452,20.22961 -13.52239,29.32544 -1.08165,1.28142 -10.90653,11.43488 -21.83307,22.56326 -16.2994,16.60049 -20.12273,20.38867 -21.2939,21.09812 -3.24905,1.96817 -7.81357,3.51526 -11.84108,4.01341 -2.18196,0.26987 -5.87015,0.26617 -7.96394,-0.008 z"
         id="path1" /></g><g
       id="g3"
       transform="matrix(0.69768595,0,0,0.61347911,33.51953,117.40119)"><path
         style="fill:#1ab0fb"
         d="m 93.662496,177.5117 c -13.108444,-1.68595 -25.284575,-9.23756 -32.458872,-20.1309 -4.268667,-6.48148 -6.753412,-13.9171 -7.176393,-21.47542 -0.36011,-6.43486 0.468856,-13.02651 2.35108,-18.69497 3.654458,-11.00567 16.269311,-33.486231 30.881671,-55.033326 8.777704,-12.943429 10.426097,-15.194752 11.429838,-15.610515 0.660708,-0.273674 0.89468,-0.259054 1.42604,0.08911 0.99818,0.654029 12.82171,17.712536 19.69949,28.421607 8.1658,12.714585 17.24347,28.935274 20.69183,36.973754 2.47781,5.77601 3.36532,9.00509 4.10596,14.9389 1.36092,10.90342 -1.23642,21.55494 -7.59171,31.13308 -2.3207,3.49756 -7.87998,9.16394 -11.47198,11.69299 -6.11201,4.30333 -12.36967,6.68034 -19.97908,7.58917 -3.52281,0.42075 -9.078336,0.47044 -11.907874,0.10652 z"
         id="path9" /><path
         style="fill:#0873f2"
         d="m 94.105672,177.52058 c -9.086884,-1.05608 -18.194009,-5.16969 -25.314008,-11.43411 -7.043976,-6.19753 -12.007183,-14.83605 -14.020074,-24.4021 -0.722229,-3.43231 -0.990106,-10.31904 -0.550604,-14.15521 0.504179,-4.40068 2.15308,-11.29623 2.63064,-11.00109 0.112208,0.0694 3.529229,0.66631 7.59338,1.32657 4.064152,0.66026 7.760677,1.26413 8.2145,1.34193 0.821369,0.1408 0.834577,0.12422 2.894628,-3.63433 3.3966,-6.19708 15.618034,-28.12406 19.92601,-35.750078 l 4.012782,-7.103463 -0.07094,-13.175976 -0.07094,-13.175975 0.663624,0.34325 c 1.08226,0.559789 15.1518,20.981777 21.87315,31.74896 6.65634,10.663049 11.16882,18.603165 15.56554,27.389012 4.44903,8.89035 5.8962,12.92547 6.92537,19.30994 0.60536,3.7553 0.59873,11.38324 -0.0128,14.73571 -1.6857,9.24119 -5.81285,17.49653 -11.91396,23.83092 -5.2906,5.49289 -10.56381,9.032 -16.98531,11.39968 -5.86934,2.1641 -14.79443,3.16953 -21.36098,2.40636 z"
         id="path8" /><path
         style="fill:#0567d8"
         d="m 93.164667,177.37265 c -6.729111,-0.91357 -13.112602,-3.32889 -18.949045,-7.16973 -10.4606,-6.8839 -17.099921,-16.8232 -19.634725,-29.39386 -0.721252,-3.57685 -0.655841,-12.65358 0.120489,-16.71948 0.574328,-3.00795 1.758493,-7.3488 2.086827,-7.64979 0.19753,-0.18107 0.133577,0.1103 -0.953114,4.3425 -3.784553,14.73921 -0.433353,29.91717 9.017642,40.84192 l 0.955868,1.10492 5.535756,-6.55363 c 3.044665,-3.6045 6.376729,-7.56566 7.404585,-8.80259 1.027856,-1.23692 2.40763,-2.8791 3.066166,-3.64927 l 1.197336,-1.40032 -3.03561,-7.19864 c -1.669586,-3.95925 -3.690894,-8.74645 -4.491796,-10.63822 -0.800902,-1.89177 -1.579884,-3.74261 -1.731071,-4.11296 -0.265042,-0.64926 -0.493797,-0.70869 -6.38891,-1.65963 -3.362714,-0.54245 -7.03676,-1.12398 -8.164546,-1.2923 -1.127787,-0.16831 -2.050521,-0.3926 -2.050521,-0.49841 0,-0.1058 0.208359,-0.14545 0.463021,-0.0881 0.729571,0.16429 15.331532,2.49203 15.632541,2.49203 0.148462,0 2.022501,-3.18492 4.16453,-7.0776 2.142028,-3.89268 4.994584,-9.04214 6.339012,-11.44323 4.897853,-8.747368 11.125807,-19.805156 13.337137,-23.680208 l 2.264799,-3.96875 0.13727,-12.832291 0.13727,-12.832291 0.06117,12.906842 0.06117,12.906841 0.962302,1.777533 c 0.52927,0.977643 1.88381,3.444407 3.0101,5.481699 1.12628,2.037291 3.44981,6.26401 5.16338,9.392708 1.71358,3.128697 3.5008,6.343385 3.9716,7.143749 0.4708,0.800365 1.21176,2.110052 1.64659,2.910418 1.38504,2.54941 3.66866,6.68616 4.7469,8.59896 3.51059,6.22777 5.45656,9.82003 5.44557,10.05252 -0.007,0.14643 -0.09,0.50435 -0.18458,0.79539 -0.13809,0.42489 -0.11145,0.41451 0.13521,-0.0527 0.16895,-0.32002 0.61912,-0.64435 1.00037,-0.72074 0.874,-0.17511 5.47135,-0.98912 11.23685,-1.9896 2.45205,-0.4255 4.50727,-0.82264 4.56718,-0.88255 0.37995,-0.37994 -5.91309,-13.52631 -9.12541,-19.063314 -0.74538,-1.284784 -1.35523,-2.373035 -1.35523,-2.418335 0,-0.07358 -2.70495,-4.711749 -5.01964,-8.607151 -3.91135,-6.582436 -13.19721,-20.941935 -16.93872,-26.193749 -0.67387,-0.945885 -2.3388,-3.327135 -3.69985,-5.291666 -4.34467,-6.271072 -5.06673,-7.187595 -5.524248,-7.012031 -0.230516,0.08846 -0.334485,0.0762 -0.231043,-0.02725 0.103443,-0.103443 0.04028,-0.366259 -0.140356,-0.584037 -0.282473,-0.340548 -0.217054,-0.338378 0.467477,0.01551 0.54576,0.282145 2.38603,2.68578 5.85518,7.647657 14.4089,20.608842 23.65527,35.620225 31.44429,51.049486 6.11146,12.10618 7.63906,17.58172 7.63296,27.35962 -0.003,5.20204 -0.34175,7.72124 -1.64227,12.22216 -3.55362,12.2986 -12.08633,22.66572 -23.2582,28.25837 -7.74015,3.87474 -17.67379,5.43576 -26.749658,4.20358 z M 106.3625,147.71562 c 8.13563,-4.54933 9.60253,-5.43814 9.73565,-5.89896 0.0861,-0.29791 0.0246,-0.28405 -0.24644,0.0556 -0.1986,0.24886 -2.8614,1.83933 -5.91734,3.53438 -3.05594,1.69505 -5.67531,3.1714 -5.82083,3.28079 -0.14552,0.10938 -1.21709,0.70887 -2.38125,1.33219 -1.16417,0.62333 -2.1762,1.19475 -2.248961,1.26984 -0.41082,0.42394 1.572281,-0.60631 6.879171,-3.57384 z m 12.40882,-12.79523 c 1.34021,-3.55247 1.46729,-3.93793 1.12765,-3.42047 -0.25685,0.39132 -2.42398,6.01989 -2.42398,6.29568 0,0.40676 0.35629,-0.38347 1.29633,-2.87521 z m 3.84036,-10.01104 c 0.96273,-2.5323 1.70287,-4.65174 1.64475,-4.70986 -0.0581,-0.0581 -0.22875,0.22783 -0.37918,0.63544 -0.15043,0.40761 -0.99721,2.64611 -1.88172,4.97444 -0.88452,2.32834 -1.60502,4.29287 -1.60112,4.36563 0.0194,0.36156 0.62184,-1.06918 2.21727,-5.26565 z"
         id="path7" /><path
         style="fill:#0854e3"
         d="M 94.059371,177.49208 C 81.272508,176.05007 69.08299,168.71231 61.712627,158.02022 57.794894,152.33681 55.053489,144.9469 54.224192,137.8339 c -0.620751,-5.32427 0.08428,-13.27786 1.658312,-18.70783 0.865074,-2.98424 0.850413,-2.06756 -0.0228,1.42569 -1.234499,4.93856 -1.469906,6.95145 -1.465816,12.53365 0.004,5.43512 0.198728,6.90151 1.598791,12.03854 1.094424,4.01561 3.604805,9.43879 5.878815,12.7 0.792616,1.13672 3.77828,4.8948 3.888742,4.8948 0.07041,0 8.003168,-9.35294 11.758842,-13.86399 5.458634,-6.55652 5.215106,-6.30488 5.896737,-6.09329 0.324165,0.10062 0.905427,0.40546 1.291693,0.67741 0.386266,0.27195 0.818172,0.49445 0.959791,0.49445 0.141618,0 0.405708,0.17859 0.586865,0.39687 0.181158,0.21829 0.525285,0.39688 0.764728,0.39688 0.239443,0 0.873392,0.29766 1.408774,0.66146 0.535383,0.3638 1.086634,0.66146 1.225003,0.66146 0.138368,0 1.007888,0.45725 1.932266,1.01611 0.924378,0.55887 2.75225,1.58693 4.061937,2.28458 1.309688,0.69766 2.616101,1.43103 2.903142,1.62972 0.592239,0.40995 1.499016,0.4733 1.872586,0.13083 0.23511,-0.21554 6.12468,-3.53454 12.1576,-6.85128 2.75906,-1.51686 3.83646,-2.31751 3.83646,-2.85101 0,-0.30961 0.74159,-2.29437 1.51561,-4.05631 0.21555,-0.49069 0.48771,-1.20506 0.6048,-1.5875 0.11709,-0.38245 0.51101,-1.46926 0.87538,-2.41514 2.57557,-6.686 5.47088,-14.34054 5.47088,-14.46377 0,-0.0578 0.65459,-0.18181 4.63021,-0.87742 1.74625,-0.30554 3.77031,-0.66249 4.49791,-0.79324 0.72761,-0.13074 2.21589,-0.37295 3.30729,-0.53824 1.09141,-0.1653 2.49883,-0.42846 3.12759,-0.58482 1.04818,-0.26064 1.13036,-0.34147 0.98856,-0.97225 -0.29246,-1.30091 0.33665,0.0729 1.1526,2.51709 2.98874,8.95257 3.07562,19.51867 0.23355,28.40338 -3.2521,10.16649 -9.63207,18.62986 -18.54381,24.59934 -2.42906,1.62709 -7.17934,3.95015 -9.97723,4.87924 -5.68839,1.88892 -13.89311,2.6886 -20.240629,1.97277 z m 46.734399,-63.7507 c -0.91294,-2.36516 -1.47178,-3.57136 -3.77998,-8.1588 -1.42396,-2.83005 -2.54021,-5.19436 -2.48054,-5.25403 0.12599,-0.12599 4.69281,8.94771 5.94532,11.81263 0.46702,1.06823 0.78388,2.00747 0.70413,2.08722 -0.0797,0.0797 -0.25476,-0.13942 -0.38893,-0.48702 z m -8.07732,-16.348288 c -1.38261,-2.44189 -1.95328,-3.731576 -1.12068,-2.532694 0.59034,0.850044 2.87174,5.152102 2.73218,5.152102 -0.0706,0 -0.79579,-1.178734 -1.6115,-2.619408 z m -4.12896,-7.140821 c 0,-0.182229 -2.80346,-5.002712 -4.47943,-7.702271 -1.23692,-1.992347 -4.60745,-7.304725 -6.88266,-10.847916 -0.67828,-1.056292 -9.82701,-14.590581 -11.09361,-16.411474 -0.19965,-0.287022 -0.29723,-0.521859 -0.21683,-0.521859 0.53624,0 13.84088,20.096019 19.53126,29.50104 3.3099,5.470593 3.72049,6.217708 3.41701,6.217708 -0.15165,0 -0.27574,-0.105852 -0.27574,-0.235228 z M 104.24987,52.70985 c -2.11164,-3.163319 -3.45125,-4.9397 -4.18279,-5.546555 -0.393823,-0.326699 -0.589971,-0.59459 -0.435883,-0.595313 0.628023,-0.0029 1.032813,0.491284 4.712273,5.753373 0.83947,1.200547 1.42881,2.179042 1.30965,2.174433 -0.11917,-0.0046 -0.75063,-0.808281 -1.40325,-1.785938 z"
         id="path6" /><path
         style="fill:#0f36c2"
         d="m 94.059371,177.49208 c -12.593529,-1.42021 -24.802496,-8.68209 -32.100883,-19.09358 -1.167917,-1.66609 -1.903037,-2.9029 -1.442317,-2.42663 0.140771,0.14552 0.898289,1.21708 1.683374,2.38125 1.959828,2.90614 7.15611,8.05232 10.556915,10.45511 4.826178,3.40988 10.346505,5.98126 15.666844,7.29765 2.719383,0.67285 9.186602,1.52885 10.440068,1.38186 l 0.72154,-0.0846 0.09285,-12.95101 0.09285,-12.95101 5.478748,-3.08552 c 3.01331,-1.69703 6.6736,-3.74933 8.13397,-4.56067 l 2.65523,-1.47516 1.49953,-3.91957 c 3.78614,-9.89646 6.7767,-17.76019 7.08698,-18.63538 l 0.33946,-0.95749 4.78804,-0.84045 c 2.63342,-0.46224 6.33585,-1.10738 8.22762,-1.43365 l 3.43959,-0.5932 -0.0539,-0.78386 c -0.0769,-1.11859 0.26837,-0.43419 1.22162,2.4212 2.98874,8.95257 3.07562,19.51867 0.23355,28.40338 -3.2521,10.16649 -9.63207,18.62986 -18.54381,24.59934 -2.42906,1.62709 -7.17934,3.95015 -9.97723,4.87924 -5.68839,1.88892 -13.89311,2.6886 -20.240625,1.97277 z M 54.080816,132.95312 c 3.71e-4,-2.18281 0.04135,-3.04057 0.09107,-1.90613 0.04972,1.13443 0.04941,2.92037 -6.74e-4,3.96875 -0.05009,1.04837 -0.09076,0.12019 -0.09039,-2.06262 z M 137.1118,105.68833 c -1.48599,-2.97618 -2.64322,-5.41125 -2.57161,-5.41125 0.17436,0 5.4807,10.61522 5.36445,10.73147 -0.0501,0.0501 -1.30685,-2.34403 -2.79284,-5.32022 z m -9.82262,-17.891203 c -0.88617,-1.479705 -1.56779,-2.733797 -1.51472,-2.786872 0.0531,-0.05308 0.60458,0.77064 1.22556,1.830476 0.62098,1.059837 1.36098,2.31393 1.64443,2.786873 0.28345,0.472942 0.457,0.859895 0.38566,0.859895 -0.0713,0 -0.85476,-1.210667 -1.74093,-2.690372 z m -3.74789,-6.239315 c -1.06138,-1.709869 -2.10029,-3.376744 -2.30868,-3.704166 -0.20839,-0.327422 -0.31885,-0.595313 -0.24547,-0.595313 0.0734,0 1.00184,1.398985 2.06322,3.108854 1.06139,1.70987 2.1003,3.376745 2.30869,3.704167 0.20839,0.327422 0.31885,0.595312 0.24546,0.595312 -0.0734,0 -1.00183,-1.398984 -2.06322,-3.108854 z M 113.00723,65.325251 c -2.94697,-4.380383 -5.24748,-7.89595 -5.11224,-7.812372 0.13523,0.08358 2.50484,3.518699 5.2658,7.633603 5.3216,7.931258 5.45959,8.143102 5.30416,8.143102 -0.0548,0 -2.51076,-3.58395 -5.45772,-7.964333 z m -8.29629,-12.077854 c -0.49658,-0.691224 -1.58302,-2.23412 -2.41431,-3.428658 -0.83129,-1.194539 -1.82041,-2.414929 -2.19805,-2.711979 -0.377637,-0.297051 -0.574251,-0.540092 -0.436919,-0.540092 0.428029,0 1.035249,0.607821 2.114559,2.116667 2.49283,3.484902 4.08424,5.820833 3.96558,5.820833 -0.0704,0 -0.53428,-0.565547 -1.03086,-1.256771 z"
         id="path5" /><path
         style="fill:#0b30bb"
         d="m 98.226558,177.60447 1.521355,-0.0955 v -12.95526 -12.95527 l 0.797537,-0.48501 c 0.43864,-0.26676 4.08423,-2.31883 8.1013,-4.56017 5.99139,-3.34292 7.36932,-4.21779 7.66858,-4.86892 0.5448,-1.18538 8.26701,-21.45867 8.44722,-22.17668 0.14878,-0.59276 0.50712,-0.67966 8.27408,-2.00652 4.46522,-0.76281 8.31992,-1.44374 8.56601,-1.51318 0.35855,-0.10118 0.57842,0.28835 1.10672,1.96071 2.19652,6.95322 2.72349,16.095 1.3447,23.32775 -1.17628,6.17048 -4.48911,13.49908 -8.55658,18.92875 -1.38658,1.85096 -5.8266,6.4823 -6.2145,6.4823 -0.14596,0 0.88992,-1.1759 2.30195,-2.61311 1.71373,-1.74429 2.51593,-2.74704 2.41274,-3.01594 -0.085,-0.22157 -0.0288,-0.4806 0.12501,-0.57564 0.17015,-0.10516 0.21791,-0.0121 0.12202,0.23782 -0.26102,0.68021 0.0949,0.46544 0.83356,-0.50301 0.38327,-0.5025 0.73106,-1.22523 0.77287,-1.60608 0.0418,-0.38084 0.2251,-0.83291 0.40732,-1.00459 0.26419,-0.24892 0.27115,-0.19507 0.0343,0.26576 -0.58699,1.1423 -0.27995,0.97717 0.58916,-0.31687 1.15166,-1.71473 2.98493,-4.96042 3.21982,-5.70047 0.13623,-0.42924 0.0973,-0.52636 -0.14974,-0.37367 -0.21859,0.1351 -0.26773,0.0994 -0.14235,-0.10347 0.1053,-0.17038 0.28988,-0.24895 0.41019,-0.1746 0.47835,0.29564 2.56869,-5.77218 3.49455,-10.14399 0.51353,-2.42485 0.59568,-3.603 0.5929,-8.50339 -0.002,-3.38141 -0.1353,-6.38605 -0.32888,-7.40834 -0.83447,-4.40677 -1.19102,-5.79794 -1.44566,-5.64056 -0.15788,0.0976 -0.18702,0.0339 -0.0706,-0.15443 0.24718,-0.39994 -0.0528,-1.68383 -0.35044,-1.49988 -0.12024,0.0743 -0.16506,-0.14499 -0.0996,-0.48733 0.0654,-0.34234 -0.024,-0.71083 -0.19886,-0.81887 -0.22927,-0.1417 -0.26518,-0.0305 -0.12886,0.39899 0.12874,0.40563 0.0956,0.53772 -0.10395,0.41439 -0.16111,-0.0996 -0.29293,-0.36585 -0.29293,-0.59174 0,-0.33194 -0.19029,-0.37432 -0.99218,-0.22098 -1.37821,0.26355 -7.46217,1.34294 -11.5427,2.04786 -3.14082,0.54257 -3.42772,0.64058 -3.67521,1.25543 -0.14764,0.3668 -0.44277,1.06839 -0.65585,1.55907 -0.21308,0.49068 -0.48508,1.20506 -0.60446,1.5875 -0.11937,0.38244 -0.47277,1.35019 -0.78533,2.15055 -0.31256,0.80037 -0.78904,2.05052 -1.05885,2.77813 -0.2698,0.7276 -0.7214,1.91823 -1.00355,2.64583 -1.19228,3.0746 -3.58576,9.36311 -4.04782,10.63503 -0.4769,1.31276 -0.45573,2.19726 0.0526,2.19726 0.12995,0 0.23903,0.14883 0.24239,0.33073 0.003,0.1819 0.78767,1.2237 1.7429,2.31511 0.95522,1.0914 2.05379,2.38343 2.44127,2.87118 0.38748,0.48774 0.8831,1.08534 1.10138,1.328 0.21828,0.24266 1.05172,1.20537 1.85208,2.13937 0.80037,0.934 1.6338,1.89169 1.85208,2.1282 0.21829,0.23651 0.82657,0.95832 1.35174,1.60403 4.64336,5.70904 5.02559,6.11036 5.48072,5.75434 0.40653,-0.31801 0.41043,-0.30349 0.0467,0.17384 -1.30147,1.70798 -1.41672,1.79012 -1.79429,1.27883 -0.3198,-0.43307 -0.34065,-0.41265 -0.22754,0.2228 0.0907,0.50968 -0.0489,0.8503 -0.51432,1.25502 -0.35137,0.30551 -0.63885,0.48215 -0.63885,0.39253 0,-0.0896 -0.17338,-0.019 -0.38528,0.15682 -0.21191,0.17587 -0.48972,0.25521 -0.61737,0.17633 -0.12764,-0.0789 -0.23207,0.0247 -0.23207,0.23016 0,0.20548 0.092,0.31673 0.20447,0.24723 0.11246,-0.0695 0.18534,0.12759 0.16196,0.43799 -0.0784,1.04107 -4.90893,4.57511 -9.19749,6.72895 -5.92443,2.97543 -14.12165,4.74756 -21.155051,4.57344 -1.840778,-0.0456 -1.874284,-0.056 -0.463021,-0.14459 z m 15.199792,-2.2351 c 1.6311,-0.47393 1.887,-0.61704 1.41537,-0.79151 -0.31664,-0.11713 -0.50922,-0.32057 -0.42795,-0.45207 0.0813,-0.1315 -0.0263,-0.3059 -0.23911,-0.38756 -0.21279,-0.0816 -0.46863,-0.0162 -0.56853,0.14545 -0.1155,0.18688 -0.0601,0.21878 0.15216,0.0876 0.25012,-0.15458 0.2853,-0.0487 0.14031,0.42214 -0.23292,0.75644 0.0143,0.59867 -1.71527,1.09457 -0.80037,0.22948 -1.2961,0.42684 -1.10164,0.43858 0.19446,0.0117 1.24956,-0.239 2.34466,-0.5572 z m 8.42809,-3.86146 c -0.0733,-0.0733 -0.30958,0.013 -0.525,0.19174 -0.21543,0.17879 -0.53436,0.23689 -0.70874,0.12912 -0.18927,-0.11698 -0.24787,-0.084 -0.1454,0.0818 0.20606,0.3334 -0.54915,0.6722 -0.9484,0.42545 -0.15496,-0.0958 -0.20505,-0.0502 -0.11139,0.10136 0.0936,0.15146 -0.0611,0.33586 -0.34377,0.40979 -0.47273,0.12362 -0.48345,0.0878 -0.13355,-0.44617 0.35502,-0.54183 0.33824,-0.58058 -0.25143,-0.58058 -0.46943,0 -0.60791,0.12423 -0.53875,0.48332 0.0512,0.26582 -0.0115,0.41866 -0.1394,0.33964 -0.12786,-0.079 -0.30725,-0.0227 -0.39866,0.12523 -0.0926,0.14981 0.082,0.26889 0.39421,0.26889 0.34823,0 0.49065,0.11287 0.37616,0.29811 -0.10133,0.16395 0.66889,-0.15021 1.7116,-0.69814 1.04271,-0.54792 1.83584,-1.05622 1.76252,-1.12955 z m 1.44139,-0.90507 c 0,-0.16466 0.074,-0.22538 0.16442,-0.13495 0.17568,0.17568 2.5563,-1.38386 4.04198,-2.64788 0.52804,-0.44926 0.84134,-0.9227 0.75914,-1.14717 -0.0977,-0.2669 -0.22415,-0.17106 -0.41899,0.31764 -0.33531,0.84105 -0.79224,1.04452 -1.50384,0.66969 -0.67317,-0.35458 -1.47624,-0.427 -1.28389,-0.11577 0.0807,0.13063 0.31334,0.17359 0.5169,0.0955 0.46177,-0.1772 0.46117,0.0961 -0.002,0.70586 -0.22856,0.30119 -0.5316,0.40623 -0.85148,0.29513 -0.48293,-0.16772 -0.48308,-0.1619 -0.005,0.211 0.47124,0.36779 0.4635,0.40173 -0.18913,0.82935 -0.37426,0.24522 -0.77395,0.44792 -0.88821,0.45043 -0.11426,0.003 -0.50541,0.31946 -0.86921,0.70432 -0.62885,0.66525 -0.63211,0.68413 -0.0661,0.38299 0.32742,-0.17421 0.59531,-0.45147 0.59531,-0.61612 z m -31.485417,6.54357 c -7.330232,-1.23657 -14.580766,-4.4213 -20.372916,-8.94861 -2.650877,-2.072 -4.984299,-4.18091 -5.456484,-4.93147 -0.235242,-0.37393 0.449747,0.16265 1.522198,1.19239 7.425434,7.12977 16.473628,11.47747 26.384844,12.67805 2.065375,0.25019 2.428818,0.34167 1.361941,0.34282 -0.800364,8.6e-4 -2.348177,-0.14907 -3.439583,-0.33318 z"
         id="path4" /></g></g></svg>
