<?xml version="1.0" encoding="utf-8"?>
<!-- Generator: Adobe Illustrator 28.0.0, SVG Export Plug-In . SVG Version: 6.00 Build 0)  -->
<svg version="1.1"
	 id="svg1" xmlns:sodipodi="http://sodipodi.sourceforge.net/DTD/sodipodi-0.dtd" xmlns:inkscape="http://www.inkscape.org/namespaces/inkscape" xmlns:svg="http://www.w3.org/2000/svg" inkscape:version="1.4.2 (f4327f4, 2025-05-13)" sodipodi:docname="Logo_Freeland_1.svg"
	 xmlns="http://www.w3.org/2000/svg" xmlns:xlink="http://www.w3.org/1999/xlink" x="0px" y="0px" viewBox="0 0 793.7 892.2"
	 style="enable-background:new 0 0 793.7 892.2;" xml:space="preserve">
<style type="text/css">
	.st0{fill:#F75BA6;}
	.st1{fill:#168ADB;}
	.st2{fill:#493AA9;}
	.st3{fill:#1AB0FB;}
	.st4{fill:#0873F2;}
	.st5{fill:#0567D8;}
	.st6{fill:#0854E3;}
	.st7{fill:#0F36C2;}
	.st8{fill:#0B30BB;}
</style>
<sodipodi:namedview  bordercolor="#000000" borderopacity="0.25" id="namedview1" inkscape:current-layer="layer1" inkscape:cx="211" inkscape:cy="679" inkscape:deskcolor="#d1d1d1" inkscape:document-units="px" inkscape:pagecheckerboard="0" inkscape:pageopacity="0.0" inkscape:showpageshadow="2" inkscape:window-height="697" inkscape:window-maximized="1" inkscape:window-width="1366" inkscape:window-x="-8" inkscape:window-y="-8" inkscape:zoom="0.5" pagecolor="#ffffff">
	</sodipodi:namedview>
<g id="layer1" inkscape:groupmode="layer" inkscape:label="Capa 1">
	<g id="g1" transform="translate(7.4083332,58.208332)">
		<path id="path3" class="st0" d="M384,792.9c-41.3-4.2-79-20.3-113.7-48.4c-6.1-4.9-145.5-146.3-159.3-161.5
			c-27.6-30.5-34.3-39.3-45-59.1c-31.5-58.4-33.2-129.7-5-207.5C73.3,282.7,89.6,251,126.3,190c27.5-45.7,47.5-83.7,62.6-118.9
			c7.6-17.8,11.3-24.1,16.7-29.1c6.4-5.9,10.3-7.4,18.6-7.4c6.8,0,7.5,0.2,12.9,3.1c4.1,2.2,7.5,5.1,11.9,9.7
			c9.2,9.8,16.5,20.6,65.7,96.8c11.9,18.5,14.6,25.6,13.8,36.5c-1.1,14.9-12.4,26.5-32.4,33c-6.8,2.2-13.9,5.9-18.1,9.2
			c-4.5,3.7-10.4,14.2-26.6,47.5c-22.6,46.6-40.2,89.9-50.3,123.9c-12,40.3-10.8,76.3,3.6,107.1c3.6,7.8,11.1,19.6,17.7,28
			c15,18.9,71,71.7,100.7,95c26.9,21.1,51.6,31.6,76.7,32.8c24.6,1.2,44.7-7.4,74.5-31.5c28.2-22.9,89.8-81.5,102.2-97.2
			c14.8-18.8,24.2-38.1,28.5-59.1c2-9.8,2-36.5,0-49c-3.7-22.2-10.5-45.3-22.4-75.1c-12.5-31.5-46.5-104.6-54.2-116.6
			c-6.4-9.9-13.9-15.7-25.7-19.7c-2-0.7-9.9-2.7-17.5-4.6c-15.3-3.7-20.9-6-24.5-10.2c-3-3.5-4.1-7.3-4.1-15c0-7.4,2.1-16.4,9-39.3
			c13.7-45,35.6-99.8,46.6-116.2c4.2-6.3,10.4-12,15.7-14.4c12.1-5.4,26.4-3.2,32.6,5.1c1.4,1.8,4.6,8.7,7.1,15.4
			c9.8,25.6,22.2,49.5,42.1,80.5c3.9,6,10,15.7,13.7,21.5c3.7,5.8,15.9,24.4,27.2,41.3c38.7,58.3,48.3,75,64.7,112.8
			c21,48.3,30.8,85.4,34,128.9c2.5,35.3-2.5,69.5-14.8,100.1c-8.9,22.2-22.1,43.2-39.8,63.5c-8.8,10.1-161.4,165.7-168.6,171.9
			c-19.7,17-52.3,32.7-80.7,38.8C428.7,792.9,400.4,794.6,384,792.9L384,792.9z"/>
		<path id="path2" class="st1" d="M384,792.9c-43.4-4.5-83.8-22.4-118-52.4c-9.1-8-153.9-155.7-162.4-165.6
			c-10.5-12.3-18.3-26.9-24.1-44.7c-5.2-16.2-6.3-23.5-6.3-41.2c0-12.5,0.3-16.4,1.8-23.5c6.1-29.1,18.7-51.8,48.2-87.1
			c14.3-17.1,142.7-147.1,148.2-149.9l2.4-1.3l-2.4,4.2c-13.8,23.9-41.1,82.7-55,118.6c-22.1,56.9-27.6,90-20.8,124.2
			c4,20,13,38.1,28.3,57.1c19.2,23.8,86.3,85.2,112.5,103c26.2,17.8,56.3,26.3,79.7,22.4c13.1-2.2,30.6-10.1,44.9-20.6
			c26.1-19,99.7-87.5,115.5-107.5c14.8-18.8,24.2-38.1,28.5-59.1c2-9.8,2-36.5,0-49c-3.7-22.2-10.5-45.3-22.4-75.1
			c-12.5-31.5-46.5-104.6-54.2-116.6c-6.4-9.9-13.9-15.7-25.7-19.7c-2-0.7-9.9-2.7-17.5-4.6c-15.3-3.7-20.9-6-24.5-10.2
			c-3-3.5-4.1-7.3-4.1-15c0-7.4,2.1-16.4,9-39.3c13.7-45,35.6-99.8,46.6-116.2c4.2-6.3,10.4-12,15.7-14.4
			c12.1-5.4,26.4-3.2,32.6,5.1c1.4,1.8,4.6,8.7,7.1,15.4c9.8,25.6,22.2,49.5,42.1,80.5c3.9,6,10,15.7,13.7,21.5
			c3.7,5.8,15.9,24.4,27.2,41.3c39.5,59.5,47.9,74.2,65.4,114.7c18,41.4,27.5,75.4,32.1,113.5c2.1,17.9,1.9,48.6-0.4,63.9
			c-6.5,42.6-22.1,76.6-51.1,110.8c-8.2,9.7-162.3,167.2-170.6,174.4c-19.6,16.9-52.2,32.6-80.6,38.8
			C428.7,792.9,400.4,794.6,384,792.9L384,792.9z"/>
		<path id="path1" class="st2" d="M458.8,756.3c-25.1-3.3-52.3-16.9-81.2-40.6C361,702,348.7,690.1,295.4,636
			c-46.6-47.2-53.2-53.6-85.9-82.7c-71.5-63.7-78.5-70.8-92.2-94c-8-13.5-16.1-33.6-18.1-44.7l-0.7-4.2l7.3-10
			c13.8-18.8,27.7-34.3,61.5-68.6c56.4-57.2,101.6-102.1,104.1-103.4l2.4-1.3l-2.4,4.2c-13.8,23.9-41.1,82.7-55,118.6
			c-22.1,56.9-27.6,90-20.8,124.2c4,20,13,38.1,28.3,57.1c14.4,17.8,68.3,68.7,96,90.7c24.8,19.6,44.4,29.5,67.2,33.9
			c4.8,0.9,12.5,2.5,17.1,3.5c11.8,2.6,33.2,2.5,42.4-0.1c9-2.5,18.3-6.5,25.8-11.1c25.7-15.6,123.7-107.1,165.9-154.8
			c40.1-45.3,58.2-73.6,68.7-107c9.1-28.9,10.4-58.7,4.3-98.8c-1.1-7.1-1.8-13-1.6-13.2c0.6-0.6,14,31.4,19,45.6
			c10.2,28.9,16,52.9,19.3,81.5c2.1,17.9,1.9,48.6-0.4,63.9c-6.5,42.5-22.1,76.5-51.1,110.8c-4.1,4.8-41.2,43.2-82.5,85.3
			c-61.6,62.7-76.1,77.1-80.5,79.7c-12.3,7.4-29.5,13.3-44.8,15.2C480.7,757.4,466.7,757.4,458.8,756.3L458.8,756.3z"/>
	</g>
	<g id="g3" transform="matrix(0.69768595,0,0,0.61347911,33.51953,117.40119)">
		<path id="path9" class="st3" d="M487.5,788.3c-49.5-6.4-95.6-34.9-122.7-76.1c-16.1-24.5-25.5-52.6-27.1-81.2
			c-1.4-24.3,1.8-49.2,8.9-70.7c13.8-41.6,61.5-126.6,116.7-208c33.2-48.9,39.4-57.4,43.2-59c2.5-1,3.4-1,5.4,0.3
			c3.8,2.5,48.5,66.9,74.5,107.4c30.9,48.1,65.2,109.4,78.2,139.7c9.4,21.8,12.7,34,15.5,56.5c5.1,41.2-4.7,81.5-28.7,117.7
			c-8.8,13.2-29.8,34.6-43.4,44.2c-23.1,16.3-46.8,25.2-75.5,28.7C519.2,789.5,498.2,789.7,487.5,788.3L487.5,788.3z"/>
		<path id="path8" class="st4" d="M489.2,788.3c-34.3-4-68.8-19.5-95.7-43.2c-26.6-23.4-45.4-56.1-53-92.2c-2.7-13-3.7-39-2.1-53.5
			c1.9-16.6,8.1-42.7,9.9-41.6c0.4,0.3,13.3,2.5,28.7,5c15.4,2.5,29.3,4.8,31,5.1c3.1,0.5,3.2,0.5,10.9-13.7
			c12.8-23.4,59-106.3,75.3-135.1l15.2-26.8l-0.3-49.8l-0.3-49.8l2.5,1.3c4.1,2.1,57.3,79.3,82.7,120
			c25.2,40.3,42.2,70.3,58.8,103.5c16.8,33.6,22.3,48.9,26.2,73c2.3,14.2,2.3,43,0,55.7c-6.4,34.9-22,66.1-45,90.1
			c-20,20.8-39.9,34.1-64.2,43.1C547.8,787.4,514,791.2,489.2,788.3L489.2,788.3z"/>
		<path id="path7" class="st5" d="M485.7,787.8c-25.4-3.5-49.6-12.6-71.6-27.1c-39.5-26-64.6-63.6-74.2-111.1
			c-2.7-13.5-2.5-47.8,0.5-63.2c2.2-11.4,6.6-27.8,7.9-28.9c0.7-0.7,0.5,0.4-3.6,16.4c-14.3,55.7-1.6,113.1,34.1,154.4l3.6,4.2
			l20.9-24.8c11.5-13.6,24.1-28.6,28-33.3c3.9-4.7,9.1-10.9,11.6-13.8l4.5-5.3l-11.5-27.2c-6.3-15-13.9-33.1-17-40.2
			c-3-7.2-6-14.1-6.5-15.5c-1-2.5-1.9-2.7-24.1-6.3c-12.7-2.1-26.6-4.2-30.9-4.9s-7.8-1.5-7.8-1.9c0-0.4,0.8-0.5,1.8-0.3
			c2.8,0.6,57.9,9.4,59.1,9.4c0.6,0,7.6-12,15.7-26.8s18.9-34.2,24-43.2c18.5-33.1,42.1-74.9,50.4-89.5l8.6-15l0.5-48.5l0.5-48.5
			l0.2,48.8l0.2,48.8l3.6,6.7c2,3.7,7.1,13,11.4,20.7c4.3,7.7,13,23.7,19.5,35.5s13.2,24,15,27c1.8,3,4.6,8,6.2,11
			c5.2,9.6,13.9,25.3,17.9,32.5c13.3,23.5,20.6,37.1,20.6,38c0,0.6-0.3,1.9-0.7,3c-0.5,1.6-0.4,1.6,0.5-0.2c0.6-1.2,2.3-2.4,3.8-2.7
			c3.3-0.7,20.7-3.7,42.5-7.5c9.3-1.6,17-3.1,17.3-3.3c1.4-1.4-22.3-51.1-34.5-72.1c-2.8-4.9-5.1-9-5.1-9.1c0-0.3-10.2-17.8-19-32.5
			c-14.8-24.9-49.9-79.2-64-99c-2.5-3.6-8.8-12.6-14-20c-16.4-23.7-19.1-27.2-20.9-26.5c-0.9,0.3-1.3,0.3-0.9-0.1
			c0.4-0.4,0.2-1.4-0.5-2.2c-1.1-1.3-0.8-1.3,1.8,0.1c2.1,1.1,9,10.2,22.1,28.9c54.5,77.9,89.4,134.6,118.8,192.9
			c23.1,45.8,28.9,66.5,28.8,103.4c0,19.7-1.3,29.2-6.2,46.2c-13.4,46.5-45.7,85.7-87.9,106.8C557.5,786.5,520,792.4,485.7,787.8
			L485.7,787.8z M535.5,675.7c30.7-17.2,36.3-20.6,36.8-22.3c0.3-1.1,0.1-1.1-0.9,0.2c-0.8,0.9-10.8,7-22.4,13.4
			c-11.6,6.4-21.5,12-22,12.4c-0.5,0.4-4.6,2.7-9,5c-4.4,2.4-8.2,4.5-8.5,4.8C508,690.8,515.5,686.9,535.5,675.7z M582.4,627.3
			c5.1-13.4,5.5-14.9,4.3-12.9c-1,1.5-9.2,22.8-9.2,23.8C577.5,639.7,578.9,636.7,582.4,627.3z M597,589.5
			c3.6-9.6,6.4-17.6,6.2-17.8c-0.2-0.2-0.9,0.9-1.4,2.4s-3.8,10-7.1,18.8c-3.3,8.8-6.1,16.2-6.1,16.5
			C588.6,610.8,590.9,605.4,597,589.5z"/>
		<path id="path6" class="st6" d="M489,788.2c-48.3-5.5-94.4-33.2-122.3-73.6c-14.8-21.5-25.2-49.4-28.3-76.3
			c-2.3-20.1,0.3-50.2,6.3-70.7c3.3-11.3,3.2-7.8-0.1,5.4c-4.7,18.7-5.6,26.3-5.5,47.4c0,20.5,0.8,26.1,6,45.5
			c4.1,15.2,13.6,35.7,22.2,48c3,4.3,14.3,18.5,14.7,18.5c0.3,0,30.2-35.3,44.4-52.4c20.6-24.8,19.7-23.8,22.3-23
			c1.2,0.4,3.4,1.5,4.9,2.6c1.5,1,3.1,1.9,3.6,1.9c0.5,0,1.5,0.7,2.2,1.5c0.7,0.8,2,1.5,2.9,1.5s3.3,1.1,5.3,2.5
			c2,1.4,4.1,2.5,4.6,2.5c0.5,0,3.8,1.7,7.3,3.8c3.5,2.1,10.4,6,15.4,8.6c4.9,2.6,9.9,5.4,11,6.2c2.2,1.5,5.7,1.8,7.1,0.5
			c0.9-0.8,23.1-13.4,45.9-25.9c10.4-5.7,14.5-8.8,14.5-10.8c0-1.2,2.8-8.7,5.7-15.3c0.8-1.9,1.8-4.6,2.3-6c0.4-1.4,1.9-5.6,3.3-9.1
			c9.7-25.3,20.7-54.2,20.7-54.7c0-0.2,2.5-0.7,17.5-3.3c6.6-1.2,14.2-2.5,17-3c2.8-0.5,8.4-1.4,12.5-2c4.1-0.6,9.4-1.6,11.8-2.2
			c4-1,4.3-1.3,3.7-3.7c-1.1-4.9,1.3,0.3,4.4,9.5c11.3,33.8,11.6,73.8,0.9,107.4c-12.3,38.4-36.4,70.4-70.1,93
			c-9.2,6.1-27.1,14.9-37.7,18.4C544,787.9,513,790.9,489,788.2L489,788.2z M665.7,547.3c-3.5-8.9-5.6-13.5-14.3-30.8
			c-5.4-10.7-9.6-19.6-9.4-19.9c0.5-0.5,17.7,33.8,22.5,44.6c1.8,4,3,7.6,2.7,7.9C666.8,549.4,666.2,548.6,665.7,547.3L665.7,547.3z
			 M635.1,485.5c-5.2-9.2-7.4-14.1-4.2-9.6c2.2,3.2,10.9,19.5,10.3,19.5C641,495.4,638.2,490.9,635.1,485.5z M619.5,458.5
			c0-0.7-10.6-18.9-16.9-29.1c-4.7-7.5-17.4-27.6-26-41c-2.6-4-37.1-55.1-41.9-62c-0.8-1.1-1.1-2-0.8-2c2,0,52.3,76,73.8,111.5
			c12.5,20.7,14.1,23.5,12.9,23.5C620,459.4,619.5,459,619.5,458.5L619.5,458.5z M527.6,316.6c-8-12-13-18.7-15.8-21
			c-1.5-1.2-2.2-2.2-1.6-2.2c2.4,0,3.9,1.9,17.8,21.7c3.2,4.5,5.4,8.2,4.9,8.2C532.4,323.3,530,320.3,527.6,316.6L527.6,316.6z"/>
		<path id="path5" class="st7" d="M489,788.2c-47.6-5.4-93.7-32.8-121.3-72.2c-4.4-6.3-7.2-11-5.5-9.2c0.5,0.6,3.4,4.6,6.4,9
			c7.4,11,27,30.4,39.9,39.5c18.2,12.9,39.1,22.6,59.2,27.6c10.3,2.5,34.7,5.8,39.5,5.2l2.7-0.3l0.4-48.9l0.4-48.9l20.7-11.7
			c11.4-6.4,25.2-14.2,30.7-17.2l10-5.6l5.7-14.8c14.3-37.4,25.6-67.1,26.8-70.4l1.3-3.6l18.1-3.2c10-1.7,23.9-4.2,31.1-5.4l13-2.2
			l-0.2-3c-0.3-4.2,1-1.6,4.6,9.2c11.3,33.8,11.6,73.8,0.9,107.4c-12.3,38.4-36.4,70.4-70.1,93c-9.2,6.1-27.1,14.9-37.7,18.4
			C544,787.9,513,790.9,489,788.2L489,788.2z M337.9,619.9c0-8.3,0.2-11.5,0.3-7.2c0.2,4.3,0.2,11,0,15
			C338.1,631.7,337.9,628.1,337.9,619.9L337.9,619.9z M651.8,516.8c-5.6-11.2-10-20.5-9.7-20.5c0.7,0,20.7,40.1,20.3,40.6
			C662.1,537.1,657.4,528.1,651.8,516.8z M614.6,449.2c-3.3-5.6-5.9-10.3-5.7-10.5c0.2-0.2,2.3,2.9,4.6,6.9c2.3,4,5.1,8.7,6.2,10.5
			c1.1,1.8,1.7,3.2,1.5,3.2C620.9,459.4,618,454.8,614.6,449.2L614.6,449.2z M600.5,425.6c-4-6.5-7.9-12.8-8.7-14
			c-0.8-1.2-1.2-2.2-0.9-2.2c0.3,0,3.8,5.3,7.8,11.8s7.9,12.8,8.7,14c0.8,1.2,1.2,2.2,0.9,2.2C608,437.4,604.5,432.1,600.5,425.6
			L600.5,425.6z M560.7,364.3c-11.1-16.6-19.8-29.8-19.3-29.5s9.5,13.3,19.9,28.9c20.1,30,20.6,30.8,20,30.8
			C581.1,394.4,571.8,380.9,560.7,364.3L560.7,364.3z M529.3,318.6c-1.9-2.6-6-8.4-9.1-13c-3.1-4.5-6.9-9.1-8.3-10.2s-2.2-2-1.7-2
			c1.6,0,3.9,2.3,8,8c9.4,13.2,15.4,22,15,22C532.9,323.4,531.2,321.3,529.3,318.6z"/>
		<path id="path4" class="st8" d="M504.8,788.7l5.8-0.4v-49v-49l3-1.8c1.7-1,15.4-8.8,30.6-17.2c22.6-12.6,27.9-15.9,29-18.4
			c2.1-4.5,31.2-81.1,31.9-83.8c0.6-2.2,1.9-2.6,31.3-7.6c16.9-2.9,31.4-5.5,32.4-5.7c1.4-0.4,2.2,1.1,4.2,7.4
			c8.3,26.3,10.3,60.8,5.1,88.2c-4.4,23.3-17,51-32.3,71.5c-5.2,7-22,24.5-23.5,24.5c-0.6,0,3.4-4.4,8.7-9.9
			c6.5-6.6,9.5-10.4,9.1-11.4c-0.3-0.8-0.1-1.8,0.5-2.2c0.6-0.4,0.8,0,0.5,0.9c-1,2.6,0.4,1.8,3.2-1.9c1.4-1.9,2.8-4.6,2.9-6.1
			c0.2-1.4,0.9-3.1,1.5-3.8c1-0.9,1-0.7,0.1,1c-2.2,4.3-1.1,3.7,2.2-1.2c4.4-6.5,11.3-18.7,12.2-21.5c0.5-1.6,0.4-2-0.6-1.4
			c-0.8,0.5-1,0.4-0.5-0.4c0.4-0.6,1.1-0.9,1.6-0.7c1.8,1.1,9.7-21.8,13.2-38.3c1.9-9.2,2.3-13.6,2.2-32.1c0-12.8-0.5-24.1-1.2-28
			c-3.2-16.7-4.5-21.9-5.5-21.3c-0.6,0.4-0.7,0.1-0.3-0.6c0.9-1.5-0.2-6.4-1.3-5.7c-0.5,0.3-0.6-0.5-0.4-1.8
			c0.2-1.3-0.1-2.7-0.8-3.1c-0.9-0.5-1-0.1-0.5,1.5c0.5,1.5,0.4,2-0.4,1.6c-0.6-0.4-1.1-1.4-1.1-2.2c0-1.3-0.7-1.4-3.8-0.8
			c-5.2,1-28.2,5.1-43.6,7.7c-11.9,2.1-13,2.4-13.9,4.7c-0.6,1.4-1.7,4-2.5,5.9c-0.8,1.9-1.8,4.6-2.3,6s-1.8,5.1-3,8.1
			c-1.2,3-3,7.8-4,10.5c-1,2.8-2.7,7.3-3.8,10c-4.5,11.6-13.6,35.4-15.3,40.2c-1.8,5-1.7,8.3,0.2,8.3c0.5,0,0.9,0.6,0.9,1.2
			c0,0.7,3,4.6,6.6,8.8c3.6,4.1,7.8,9,9.2,10.9c1.5,1.8,3.3,4.1,4.2,5c0.8,0.9,4,4.6,7,8.1c3,3.5,6.2,7.1,7,8
			c0.8,0.9,3.1,3.6,5.1,6.1c17.5,21.6,19,23.1,20.7,21.7c1.5-1.2,1.6-1.1,0.2,0.7c-4.9,6.5-5.4,6.8-6.8,4.8
			c-1.2-1.6-1.3-1.6-0.9,0.8c0.3,1.9-0.2,3.2-1.9,4.7c-1.3,1.2-2.4,1.8-2.4,1.5c0-0.3-0.7-0.1-1.5,0.6c-0.8,0.7-1.9,1-2.3,0.7
			c-0.5-0.3-0.9,0.1-0.9,0.9c0,0.8,0.3,1.2,0.8,0.9c0.4-0.3,0.7,0.5,0.6,1.7c-0.3,3.9-18.6,17.3-34.8,25.4
			c-22.4,11.2-53.4,17.9-80,17.3C499.6,789,499.5,789,504.8,788.7L504.8,788.7z M562.2,780.2c6.2-1.8,7.1-2.3,5.3-3
			c-1.2-0.4-1.9-1.2-1.6-1.7c0.3-0.5-0.1-1.2-0.9-1.5c-0.8-0.3-1.8-0.1-2.1,0.5c-0.4,0.7-0.2,0.8,0.6,0.3c0.9-0.6,1.1-0.2,0.5,1.6
			c-0.9,2.9,0.1,2.3-6.5,4.1c-3,0.9-4.9,1.6-4.2,1.7C554.1,782.4,558.1,781.4,562.2,780.2z M594.1,765.6c-0.3-0.3-1.2,0-2,0.7
			c-0.8,0.7-2,0.9-2.7,0.5c-0.7-0.4-0.9-0.3-0.5,0.3c0.8,1.3-2.1,2.5-3.6,1.6c-0.6-0.4-0.8-0.2-0.4,0.4c0.4,0.6-0.2,1.3-1.3,1.5
			c-1.8,0.5-1.8,0.3-0.5-1.7c1.3-2,1.3-2.2-1-2.2c-1.8,0-2.3,0.5-2,1.8c0.2,1,0,1.6-0.5,1.3c-0.5-0.3-1.2-0.1-1.5,0.5
			c-0.3,0.6,0.3,1,1.5,1c1.3,0,1.9,0.4,1.4,1.1c-0.4,0.6,2.5-0.6,6.5-2.6C591.4,767.8,594.4,765.9,594.1,765.6L594.1,765.6z
			 M599.5,762.2c0-0.6,0.3-0.9,0.6-0.5c0.7,0.7,9.7-5.2,15.3-10c2-1.7,3.2-3.5,2.9-4.3c-0.4-1-0.8-0.6-1.6,1.2
			c-1.3,3.2-3,3.9-5.7,2.5c-2.5-1.3-5.6-1.6-4.9-0.4c0.3,0.5,1.2,0.7,2,0.4c1.7-0.7,1.7,0.4,0,2.7c-0.9,1.1-2,1.5-3.2,1.1
			c-1.8-0.6-1.8-0.6,0,0.8c1.8,1.4,1.8,1.5-0.7,3.1c-1.4,0.9-2.9,1.7-3.4,1.7c-0.4,0-1.9,1.2-3.3,2.7c-2.4,2.5-2.4,2.6-0.2,1.4
			C598.5,763.9,599.5,762.8,599.5,762.2L599.5,762.2z M480.5,786.9c-27.7-4.7-55.1-16.7-77-33.8c-10-7.8-18.8-15.8-20.6-18.6
			c-0.9-1.4,1.7,0.6,5.8,4.5c28.1,26.9,62.3,43.4,99.7,47.9c7.8,0.9,9.2,1.3,5.1,1.3C490.5,788.2,484.7,787.6,480.5,786.9z"/>
	</g>
</g>
</svg>
